<?xml version="1.0" standalone="no"?>
<!DOCTYPE svg PUBLIC "-//W3C//DTD SVG 20010904//EN"
 "http://www.w3.org/TR/2001/REC-SVG-20010904/DTD/svg10.dtd">
<svg version="1.0" xmlns="http://www.w3.org/2000/svg"
 width="2048.000000pt" height="2048.000000pt" viewBox="0 0 2048.000000 2048.000000"
 preserveAspectRatio="xMidYMid meet">
<metadata>
Created by potrace 1.16, written by Peter Selinger 2001-2019
</metadata>
<g transform="translate(0.000000,2048.000000) scale(0.100000,-0.100000)"
fill="#FFEAE5" stroke="none">
<path d="M1915 18983 c-109 -13 -281 -57 -358 -92 -23 -11 -58 -26 -78 -34
-85 -35 -246 -151 -345 -251 -190 -191 -312 -417 -361 -667 -17 -90 -18 -275
-18 -4599 0 -4287 1 -4509 18 -4597 60 -307 234 -589 482 -780 149 -114 287
-181 475 -231 l135 -36 547 -4 547 -3 3 -817 4 -817 26 -111 c57 -237 178
-454 348 -624 70 -70 190 -170 205 -170 3 0 27 -14 51 -31 61 -42 159 -85 271
-119 203 -63 195 -62 745 -67 l507 -5 3 -936 3 -937 37 -137 c41 -152 74 -231
147 -351 181 -300 447 -495 809 -595 l97 -27 6160 0 6160 0 99 28 c394 110
684 340 858 682 51 100 84 195 110 315 l23 105 0 3535 0 3535 -24 105 c-28
125 -57 207 -113 315 -94 183 -94 183 -1078 1170 l-938 940 -5 245 c-4 225 -7
253 -31 345 -15 55 -29 111 -32 125 -11 52 -128 274 -186 353 -41 55 -368 391
-1008 1032 l-948 950 -7 97 c-16 245 -109 490 -261 693 -29 39 -533 550 -1121
1136 -1030 1028 -1072 1068 -1173 1132 -124 77 -242 128 -400 171 l-115 31
-5120 1 c-2816 1 -5133 -1 -5150 -3z m10197 -871 c36 -11 88 -33 115 -50 26
-17 451 -434 943 -927 l895 -895 -403 0 -403 0 31 44 c16 25 30 47 30 50 0 3
-207 6 -460 6 l-460 0 -37 -50 -37 -50 -1637 0 -1637 0 -32 50 -32 50 -504 0
c-277 0 -504 -3 -504 -8 0 -4 11 -24 25 -44 14 -20 25 -39 25 -43 0 -3 -471
-4 -1047 -2 -1032 3 -1049 3 -1139 24 -114 27 -278 50 -459 63 -85 6 -690 10
-1542 10 l-1403 0 0 -3385 0 -3385 260 0 260 0 0 -515 0 -515 -453 0 c-282 0
-476 4 -513 11 -83 15 -173 61 -239 121 -62 56 -93 105 -127 194 l-23 59 -3
4383 c-2 4799 -7 4440 55 4570 50 106 161 200 275 233 60 17 276 18 5088 18
4853 1 5028 0 5092 -17z m2161 -2742 c32 -5 88 -24 125 -41 63 -30 136 -101
1097 -1060 566 -566 1027 -1029 1025 -1031 -3 -2 -278 -2 -613 0 l-607 3 67
97 c147 212 163 236 163 244 0 4 -207 8 -459 8 l-459 0 -77 -107 c-42 -60 -97
-138 -123 -175 l-47 -67 -1470 0 -1470 0 -115 174 -114 175 -503 0 c-277 0
-503 -4 -503 -8 0 -5 49 -82 109 -173 l109 -164 -835 -3 -834 -2 -60 41 c-96
65 -358 177 -462 198 -23 5 -85 18 -137 29 -343 75 -324 74 -1967 79 l-1463 4
0 -3390 0 -3391 235 0 235 0 0 -510 0 -510 -457 0 c-454 0 -459 1 -524 24
-128 45 -216 121 -274 235 -58 117 -55 -197 -55 4536 0 4768 -4 4418 60 4545
57 114 198 219 318 240 69 11 10014 12 10085 0z m2198 -3006 c131 -39 114 -23
1196 -1106 1109 -1111 1063 -1060 1097 -1208 14 -58 16 -452 16 -3440 0 -2866
-2 -3385 -14 -3442 -36 -169 -166 -311 -325 -355 -63 -17 -299 -18 -6066 -18
-5841 0 -6002 0 -6067 19 -141 40 -264 161 -316 312 -16 46 -17 342 -20 4419
-2 3147 0 4388 8 4435 13 75 37 133 84 204 56 84 124 133 236 172 l65 23 5026
0 c4582 1 5030 0 5080 -15z"/>
<path d="M6820 7206 l0 -3386 420 0 420 0 0 1370 0 1370 798 0 c861 0 1155 9
1413 40 583 69 1017 265 1278 575 201 238 352 534 431 845 32 126 40 173 55
340 46 486 -23 888 -220 1280 -257 513 -692 807 -1330 900 -292 42 -308 42
-1807 47 l-1458 4 0 -3385z m3040 2550 c256 -36 419 -114 580 -275 166 -167
281 -402 315 -643 19 -134 19 -353 0 -487 -38 -265 -151 -492 -326 -657 -164
-154 -409 -249 -774 -301 -91 -13 -269 -16 -1052 -20 l-943 -5 0 1207 0 1207
1043 -5 c890 -4 1059 -7 1157 -21z"/>
<path d="M12350 10583 c0 -3 150 -232 334 -507 183 -276 667 -1002 1074 -1615
l742 -1114 -70 -101 c-38 -56 -96 -139 -128 -186 -32 -47 -96 -139 -143 -205
-46 -66 -104 -150 -129 -186 -25 -37 -81 -118 -124 -180 -44 -63 -103 -148
-131 -189 -28 -41 -89 -129 -135 -195 -106 -152 -160 -231 -225 -325 -29 -41
-85 -122 -125 -180 -40 -58 -96 -139 -125 -180 -29 -41 -90 -129 -136 -195
-46 -66 -104 -150 -129 -186 -25 -37 -84 -123 -131 -190 -47 -68 -106 -153
-131 -189 -24 -36 -76 -110 -114 -165 -66 -93 -109 -155 -239 -345 -29 -41
-91 -131 -139 -200 l-86 -125 502 -3 c277 -1 508 0 515 2 6 3 33 38 60 78 76
114 632 942 768 1143 543 804 822 1222 875 1315 23 41 59 102 80 135 20 33 45
76 54 95 20 41 44 75 50 69 2 -2 37 -60 78 -129 117 -195 162 -265 363 -570
103 -157 244 -370 313 -475 168 -255 425 -645 591 -896 75 -113 219 -332 321
-487 l185 -282 524 0 c467 0 523 2 517 15 -7 18 -81 130 -1751 2625 -275 410
-527 787 -562 839 -62 93 -63 95 -47 120 9 14 72 105 139 201 67 96 177 255
246 353 68 98 144 209 169 245 25 37 92 132 147 212 172 245 194 276 398 570
109 157 224 321 255 365 31 44 69 98 83 120 14 22 104 153 201 290 96 138 207
297 247 355 40 58 96 137 123 177 161 227 186 264 186 273 0 7 -159 10 -459
10 l-459 0 -108 -152 c-60 -84 -163 -229 -229 -323 -66 -93 -127 -180 -135
-192 -8 -11 -64 -90 -125 -175 -60 -84 -122 -171 -137 -193 -15 -22 -88 -125
-163 -230 -132 -185 -342 -482 -458 -647 -60 -86 -227 -336 -262 -394 -11 -18
-48 -81 -83 -139 l-64 -106 -82 143 c-76 131 -122 208 -230 380 -37 59 -214
328 -561 853 -84 127 -249 376 -367 555 -118 179 -258 391 -312 473 l-98 147
-504 0 c-277 0 -504 -3 -504 -7z"/>
</g>
</svg>
